<svg
  width="16"
  height="18"
  viewBox="0 0 16 18"
  fill="none"
  xmlns="http://www.w3.org/2000/svg"
>
  <path
    d="M14.6005 3.506H13.4654C13.6172 3.23323 13.7119 2.92336 13.7418 2.601C13.7858 2.1313 13.705 1.65727 13.5102 1.24177C13.3154 0.826264 13.0157 0.488925 12.651 0.274485C12.2863 0.060046 11.8737 -0.0213614 11.4679 0.0410593C11.0622 0.10348 10.6824 0.306779 10.3791 0.623996L8.94597 2.123C8.80322 1.94201 8.62929 1.79743 8.43533 1.69849C8.24137 1.59955 8.03164 1.54845 7.81958 1.54845C7.60752 1.54845 7.3978 1.59955 7.20384 1.69849C7.00987 1.79743 6.83595 1.94201 6.69319 2.123L5.25661 0.623996C4.95332 0.306877 4.57369 0.103626 4.16803 0.0411884C3.76238 -0.0212496 3.34986 0.0600734 2.98516 0.274377C2.62047 0.488681 2.32081 0.825845 2.12593 1.24117C1.93104 1.6565 1.85012 2.13038 1.8939 2.6C1.92444 2.92064 2.01906 3.22873 2.1703 3.5H1.03871C0.904693 3.49999 0.771993 3.53056 0.648238 3.58993C0.524484 3.64931 0.412115 3.73632 0.317589 3.84597C0.223064 3.95562 0.148245 4.08575 0.0974315 4.22888C0.0466183 4.37201 0.0208127 4.52532 0.0214977 4.68V6.441C0.0214977 6.59668 0.075083 6.74598 0.170466 6.85607C0.265848 6.96615 0.395215 7.028 0.530106 7.028H15.1091C15.244 7.028 15.3733 6.96615 15.4687 6.85607C15.5641 6.74598 15.6177 6.59668 15.6177 6.441V4.68C15.6177 4.36863 15.5105 4.07002 15.3197 3.84985C15.129 3.62969 14.8702 3.506 14.6005 3.506ZM6.29376 3.306V3.506H3.90148C3.67227 3.50808 3.44939 3.41929 3.2701 3.25447C3.09081 3.08966 2.96597 2.8588 2.91647 2.6005C2.86696 2.34221 2.89578 2.07212 2.9981 1.8354C3.10043 1.59869 3.27007 1.40968 3.47865 1.3C3.65656 1.20049 3.85641 1.16548 4.0519 1.19958C4.24738 1.23367 4.42935 1.33526 4.57385 1.491L6.29376 3.291C6.29462 3.3 6.29376 3.3 6.29376 3.31V3.306ZM12.7324 2.441C12.7047 2.73662 12.582 3.00954 12.3886 3.20594C12.1952 3.40234 11.945 3.50797 11.6874 3.502H9.34801V3.302C9.34801 3.295 9.34801 3.288 9.34801 3.281L11.0411 1.509C11.167 1.37078 11.3215 1.27211 11.4899 1.22239C11.6582 1.17268 11.8348 1.17357 12.0028 1.225C12.2303 1.29495 12.4287 1.45621 12.5624 1.67982C12.6961 1.90342 12.7564 2.17472 12.7324 2.445V2.441Z"
    fill="#BBBDC0"
  />
  <path
    d="M1.03873 8.19998V16.81C1.03873 17.1213 1.1459 17.42 1.33666 17.6401C1.52743 17.8603 1.78616 17.984 2.05594 17.984H6.80238V8.19998H1.03873Z"
    fill="#BBBDC0"
  />
  <path
    d="M8.83681 8.19998V17.983H13.5832C13.7168 17.983 13.8491 17.9526 13.9725 17.8936C14.0959 17.8346 14.2081 17.7481 14.3025 17.6391C14.397 17.5301 14.4719 17.4007 14.523 17.2583C14.5741 17.1158 14.6005 16.9632 14.6005 16.809V8.19998H8.83681Z"
    fill="#BBBDC0"
  />
</svg>
