<svg width="17" height="16" viewBox="0 0 17 16" fill="none" xmlns="http://www.w3.org/2000/svg">
<path d="M9.02583 4.57101V8.85701L12.2066 11.034L12.7412 9.99301L10.1418 8.21401V4.57101H9.02583Z" fill="white"/>
<path d="M9.76409 0.286013C8.88646 0.28575 8.01739 0.485128 7.20656 0.872749C6.39573 1.26037 5.65905 1.82863 5.03863 2.54505C4.41821 3.26146 3.92622 4.11198 3.59079 5.04798C3.25535 5.98399 3.08305 6.98711 3.08373 8.00001H0.856079L3.74917 11.339L3.80116 11.463L6.79735 8.00001H4.5697C4.56707 6.60806 4.98289 5.25815 5.74625 4.18048C6.50961 3.10281 7.57323 2.36412 8.75574 2.09037C9.93826 1.81662 11.1664 2.02476 12.2308 2.6793C13.2953 3.33384 14.13 4.39425 14.5927 5.6797C15.0554 6.96515 15.1174 8.39604 14.7682 9.72837C14.4189 11.0607 13.6801 12.212 12.6776 12.9858C11.6751 13.7597 10.471 14.1083 9.27072 13.9721C8.07044 13.8359 6.94826 13.2234 6.09553 12.239L5.04452 13.451C5.82168 14.348 6.77858 15.0099 7.83039 15.3781C8.88221 15.7462 9.99647 15.8093 11.0744 15.5616C12.1524 15.3139 13.1608 14.7631 14.0102 13.9581C14.8596 13.153 15.5239 12.1186 15.9441 10.9464C16.3643 9.77428 16.5275 8.50058 16.4192 7.23822C16.3109 5.97586 15.9345 4.76383 15.3233 3.70952C14.7121 2.6552 13.885 1.79118 12.9153 1.19401C11.9456 0.596836 10.8632 0.284959 9.76409 0.286013Z" fill="white"/>
</svg>
