<svg width="16" height="18" viewBox="0 0 16 18" fill="none" xmlns="http://www.w3.org/2000/svg">
<path d="M14.9651 7.669C14.7251 7.469 14.4253 7.21 14.3863 7.041C14.4018 6.71838 14.4816 6.40423 14.6194 6.123C14.8308 5.563 15.0526 4.982 14.8066 4.499C14.5605 4.016 14.012 3.938 13.4809 3.869C13.2057 3.86705 12.9345 3.79248 12.6881 3.651C12.5657 3.36654 12.5011 3.05361 12.4992 2.736C12.4394 2.123 12.3779 1.489 11.9533 1.206C11.5842 0.959 11.0375 1.175 10.5462 1.422C10.2975 1.56779 10.0275 1.659 9.74994 1.691C9.60351 1.646 9.38343 1.3 9.20581 1.023C8.89995 0.543 8.55424 0 8.05343 0C7.55262 0 7.2069 0.543 6.90104 1.022C6.72342 1.3 6.50334 1.646 6.29452 1.698C6.03797 1.65343 5.78965 1.55982 5.55977 1.421C5.35241 1.27142 5.11972 1.17476 4.87733 1.13751C4.63493 1.10025 4.38844 1.12327 4.15438 1.205C3.72895 1.488 3.66744 2.122 3.60765 2.736C3.60544 3.05356 3.54086 3.36641 3.41876 3.651C3.17228 3.79225 2.90115 3.8668 2.62596 3.869C2.09396 3.938 1.54462 4.01 1.29942 4.499C1.05421 4.988 1.27602 5.562 1.48657 6.123C1.62493 6.40434 1.70472 6.71896 1.71965 7.042C1.68066 7.211 1.38086 7.466 1.14086 7.67C0.725825 8.022 0.255341 8.422 0.255341 9C0.255341 9.578 0.725825 9.978 1.14172 10.331C1.38173 10.531 1.68152 10.79 1.72051 10.959C1.70505 11.2816 1.62529 11.5958 1.48744 11.877C1.27602 12.437 1.05421 13.018 1.30028 13.501C1.54636 13.984 2.09482 14.062 2.62596 14.131C2.90117 14.133 3.17235 14.2075 3.41876 14.349C3.54118 14.6335 3.60578 14.9464 3.60765 15.264C3.66744 15.877 3.72895 16.511 4.15352 16.794C4.52003 17.041 5.06676 16.825 5.55977 16.578C5.80692 16.4277 6.07769 16.3362 6.35604 16.309C6.50247 16.354 6.72255 16.7 6.90018 16.977C7.2069 17.457 7.55262 18 8.05343 18C8.55424 18 8.89995 17.457 9.20581 16.978C9.38343 16.7 9.60351 16.354 9.81233 16.301C10.0689 16.3456 10.3172 16.4392 10.5471 16.578C11.0418 16.825 11.5868 17.04 11.9533 16.795C12.3788 16.512 12.4403 15.878 12.5001 15.264C12.5023 14.9464 12.5669 14.6336 12.689 14.349C12.9354 14.2077 13.2066 14.1332 13.4818 14.131C14.0138 14.062 14.5631 13.991 14.8083 13.501C15.0535 13.011 14.8317 12.438 14.6211 11.877C14.4833 11.5958 14.4035 11.2816 14.3881 10.959C14.4271 10.79 14.7269 10.535 14.9669 10.331C15.381 9.978 15.8515 9.578 15.8515 9C15.8515 8.422 15.381 8.022 14.9651 7.669ZM6.35778 10.569C6.35775 10.6512 6.3353 10.7312 6.29362 10.7978C6.25193 10.8644 6.19314 10.9142 6.12557 10.94C6.09098 10.9536 6.05466 10.9603 6.01813 10.96C5.96547 10.9599 5.91356 10.9456 5.86649 10.9184C5.81943 10.8911 5.77849 10.8516 5.74693 10.803L4.32767 8.609V10.566C4.32767 10.6698 4.29193 10.7694 4.22832 10.8428C4.1647 10.9163 4.07842 10.9575 3.98846 10.9575C3.89849 10.9575 3.81221 10.9163 3.74859 10.8428C3.68498 10.7694 3.64924 10.6698 3.64924 10.566V7.435C3.65006 7.35386 3.67273 7.27503 3.71411 7.20942C3.75549 7.14382 3.81353 7.0947 3.88018 7.06888C3.94683 7.04305 4.0188 7.0418 4.08609 7.0653C4.15339 7.08879 4.21268 7.13587 4.25576 7.2L5.68021 9.391V7.435C5.68021 7.33117 5.71595 7.23159 5.77956 7.15817C5.84318 7.08475 5.92946 7.0435 6.01943 7.0435C6.10939 7.0435 6.19567 7.08475 6.25929 7.15817C6.3229 7.23159 6.35864 7.33117 6.35864 7.435L6.35778 10.569ZM8.73186 8.609C8.82183 8.609 8.90811 8.65025 8.97172 8.72367C9.03534 8.79709 9.07108 8.89667 9.07108 9.0005C9.07108 9.10433 9.03534 9.20391 8.97172 9.27733C8.90811 9.35075 8.82183 9.392 8.73186 9.392H7.71464V10.175H8.73186C8.82183 10.175 8.90811 10.2162 8.97172 10.2897C9.03534 10.3631 9.07108 10.4627 9.07108 10.5665C9.07108 10.6703 9.03534 10.7699 8.97172 10.8433C8.90811 10.9168 8.82183 10.958 8.73186 10.958H7.37499C7.28514 10.958 7.19897 10.9168 7.13544 10.8435C7.0719 10.7702 7.03621 10.6707 7.03621 10.567V7.435C7.03621 7.3313 7.0719 7.23185 7.13544 7.15852C7.19897 7.08519 7.28514 7.044 7.37499 7.044H8.73186C8.77641 7.044 8.82052 7.05413 8.86167 7.0738C8.90283 7.09348 8.94022 7.12231 8.97172 7.15867C9.00322 7.19502 9.02821 7.23818 9.04525 7.28568C9.0623 7.33318 9.07108 7.38409 9.07108 7.4355C9.07108 7.48691 9.0623 7.53782 9.04525 7.58532C9.02821 7.63282 9.00322 7.67598 8.97172 7.71233C8.94022 7.74869 8.90283 7.77752 8.86167 7.7972C8.82052 7.81687 8.77641 7.827 8.73186 7.827H7.71464V8.61H8.73186V8.609ZM13.1291 7.53L12.4507 10.66C12.4335 10.743 12.3933 10.8172 12.3363 10.8714C12.2792 10.9255 12.2083 10.9567 12.1344 10.96H12.1206C12.0493 10.96 11.9798 10.9342 11.9219 10.8861C11.8641 10.838 11.8208 10.7701 11.7982 10.692L11.443 9.459L11.086 10.689C11.0652 10.7712 11.0205 10.8425 10.9594 10.8912C10.8983 10.9398 10.8246 10.9627 10.7507 10.956C10.6768 10.9527 10.606 10.9215 10.5489 10.8674C10.4918 10.8132 10.4516 10.739 10.4344 10.656L9.75601 7.526C9.74525 7.47616 9.74311 7.42437 9.7497 7.37358C9.75629 7.32279 9.77149 7.27399 9.79442 7.22997C9.81735 7.18596 9.84757 7.14759 9.88335 7.11705C9.91913 7.08651 9.95977 7.06441 10.0029 7.052C10.0461 7.03959 10.091 7.03712 10.135 7.04472C10.179 7.05233 10.2213 7.06987 10.2594 7.09633C10.2976 7.1228 10.3308 7.15767 10.3573 7.19897C10.3837 7.24026 10.4029 7.28716 10.4136 7.337L10.8087 9.164L11.1189 8.091C11.147 8.01964 11.1923 7.95913 11.2494 7.91669C11.3065 7.87425 11.3729 7.85168 11.4408 7.85168C11.5087 7.85168 11.5752 7.87425 11.6323 7.91669C11.6894 7.95913 11.7346 8.01964 11.7627 8.091L12.0729 9.164L12.4723 7.34C12.4973 7.24342 12.5536 7.16166 12.6295 7.11172C12.7054 7.06178 12.795 7.04749 12.8797 7.07182C12.9645 7.09614 13.0379 7.15722 13.0846 7.24236C13.1314 7.32749 13.148 7.43015 13.1308 7.529L13.1291 7.53Z" fill="#BBBDC0"/>
</svg>
