<svg width="16" height="18" viewBox="0 0 16 18" fill="none" xmlns="http://www.w3.org/2000/svg">
<path d="M13.55 6.429C13.55 5.15747 13.2233 3.91449 12.6113 2.85724C11.9992 1.8 11.1292 0.975977 10.1113 0.489381C9.09346 0.00278562 7.97344 -0.12453 6.89288 0.123534C5.81232 0.371599 4.81976 0.983902 4.04072 1.88301C3.26168 2.78213 2.73115 3.92766 2.51622 5.17477C2.30128 6.42187 2.41159 7.71453 2.83321 8.88927C3.25482 10.064 3.9688 11.0681 4.88485 11.7745C5.8009 12.4809 6.87789 12.858 7.97961 12.858C8.71113 12.858 9.43549 12.6917 10.1113 12.3686C10.7872 12.0455 11.4012 11.572 11.9185 10.975C12.4358 10.378 12.8461 9.66928 13.126 8.88927C13.406 8.10927 13.55 7.27327 13.55 6.429ZM10.9715 5.589L9.74545 6.969L10.0357 8.918C10.0477 8.99691 10.0402 9.07811 10.0142 9.15237C9.98815 9.22663 9.94458 9.29097 9.88843 9.33806C9.83228 9.38515 9.7658 9.41311 9.69657 9.41876C9.62733 9.42441 9.55811 9.40751 9.49678 9.37L7.98048 8.45L6.46419 9.37C6.40282 9.4071 6.3337 9.42368 6.26461 9.41785C6.19552 9.41203 6.12922 9.38404 6.07318 9.33704C6.01714 9.29004 5.97359 9.2259 5.94745 9.15186C5.92132 9.07782 5.91363 8.99682 5.92525 8.918L6.21551 6.969L4.98862 5.59C4.93882 5.53431 4.90356 5.46362 4.88682 5.38596C4.87008 5.3083 4.87255 5.22678 4.89393 5.15065C4.91532 5.07453 4.95477 5.00685 5.0078 4.9553C5.06084 4.90374 5.12533 4.87038 5.19397 4.859L6.88875 4.574L7.64603 2.801C7.6802 2.73425 7.72886 2.67893 7.7872 2.64049C7.84555 2.60206 7.91157 2.58185 7.97875 2.58185C8.04593 2.58185 8.11195 2.60206 8.17029 2.64049C8.22864 2.67893 8.2773 2.73425 8.31147 2.801L9.07048 4.574L10.7653 4.859C10.8339 4.87038 10.8984 4.90374 10.9514 4.9553C11.0045 5.00685 11.0439 5.07453 11.0653 5.15065C11.0867 5.22678 11.0891 5.3083 11.0724 5.38596C11.0557 5.46362 11.0204 5.53431 10.9706 5.59L10.9715 5.589Z" fill="#189541"/>
<path d="M8.49258 5.15599L7.98051 3.95599L7.46843 5.15599C7.44183 5.21816 7.40254 5.27194 7.35394 5.3127C7.30534 5.35347 7.24888 5.37999 7.18943 5.38999L6.04572 5.58199L6.87318 6.51399C6.91633 6.56241 6.94866 6.62219 6.96737 6.68821C6.98609 6.75423 6.99063 6.8245 6.98062 6.89299L6.78393 8.20799L7.80722 7.58699C7.86057 7.55425 7.92008 7.53713 7.98051 7.53713C8.04094 7.53713 8.10044 7.55425 8.1538 7.58699L9.17708 8.20799L8.98039 6.89299C8.97038 6.8245 8.97493 6.75423 8.99364 6.68821C9.01236 6.62219 9.04468 6.56241 9.08783 6.51399L9.9153 5.58199L8.77245 5.38999C8.713 5.37999 8.65654 5.35347 8.60794 5.3127C8.55934 5.27194 8.52005 5.21816 8.49345 5.15599H8.49258Z" fill="#189541"/>
<path d="M15.7041 14.365L13.2044 10.515C12.6988 11.3746 12.0399 12.0995 11.2718 12.6412C10.5037 13.183 9.64419 13.5289 8.75079 13.656L11.4585 17.829C11.502 17.8957 11.5614 17.9463 11.6294 17.9746C11.6974 18.0029 11.7711 18.0077 11.8415 17.9884C11.9119 17.9691 11.9758 17.9265 12.0255 17.8659C12.0752 17.8052 12.1085 17.7292 12.1213 17.647L12.6039 14.488L15.3419 15.045C15.4152 15.0598 15.4907 15.0489 15.5586 15.0137C15.6265 14.9785 15.6836 14.9205 15.7226 14.8474C15.7617 14.7742 15.7807 14.6892 15.7774 14.6034C15.7741 14.5176 15.7486 14.4349 15.7041 14.366V14.365Z" fill="#189541"/>
<path d="M2.75575 10.515L0.256029 14.365C0.21141 14.4337 0.185733 14.5163 0.182333 14.6021C0.178934 14.6879 0.19797 14.7729 0.236967 14.846C0.275243 14.92 0.332151 14.9788 0.400107 15.0145C0.468062 15.0503 0.54384 15.0612 0.61734 15.046L3.35533 14.489L3.83795 17.648C3.85075 17.7302 3.88405 17.8062 3.93375 17.8669C3.98345 17.9275 4.04739 17.9701 4.11775 17.9894C4.18811 18.0087 4.26183 18.0039 4.32986 17.9756C4.3979 17.9473 4.4573 17.8967 4.50079 17.83L7.21279 13.655C6.31885 13.5286 5.45868 13.183 4.68996 12.6415C3.92124 12.0999 3.26176 11.3749 2.75575 10.515Z" fill="#189541"/>
</svg>
